<mxfile host="app.diagrams.net" modified="2023-12-29T00:33:08.142Z" agent="Mozilla/5.0 (Macintosh; Intel Mac OS X 10_15_7) AppleWebKit/537.36 (KHTML, like Gecko) Chrome/120.0.0.0 Safari/537.36" etag="TtWWllINuiVffAcWVSpa" version="22.1.12" type="github">
  <diagram id="C5RBs43oDa-KdzZeNtuy" name="Page-1">
    <mxGraphModel dx="1363" dy="914" grid="1" gridSize="10" guides="1" tooltips="1" connect="1" arrows="1" fold="1" page="1" pageScale="1" pageWidth="827" pageHeight="1169" math="0" shadow="0">
      <root>
        <mxCell id="WIyWlLk6GJQsqaUBKTNV-0" />
        <mxCell id="WIyWlLk6GJQsqaUBKTNV-1" parent="WIyWlLk6GJQsqaUBKTNV-0" />
        <mxCell id="yG3EtKwMuxylufSLAqyE-0" value="用户" style="shape=umlActor;verticalLabelPosition=bottom;verticalAlign=top;html=1;outlineConnect=0;" vertex="1" parent="WIyWlLk6GJQsqaUBKTNV-1">
          <mxGeometry x="135" y="440" width="30" height="60" as="geometry" />
        </mxCell>
        <mxCell id="yG3EtKwMuxylufSLAqyE-1" value="" style="html=1;points=[[0,0,0,0,5],[0,1,0,0,-5],[1,0,0,0,5],[1,1,0,0,-5]];perimeter=orthogonalPerimeter;outlineConnect=0;targetShapes=umlLifeline;portConstraint=eastwest;newEdgeStyle={&quot;curved&quot;:0,&quot;rounded&quot;:0};" vertex="1" parent="WIyWlLk6GJQsqaUBKTNV-1">
          <mxGeometry x="145" y="570" width="10" height="710" as="geometry" />
        </mxCell>
        <mxCell id="yG3EtKwMuxylufSLAqyE-2" value="&lt;font style=&quot;font-size: 14px;&quot;&gt;console&amp;nbsp;&lt;/font&gt;" style="text;html=1;align=center;verticalAlign=middle;resizable=0;points=[];autosize=1;strokeColor=none;fillColor=none;" vertex="1" parent="WIyWlLk6GJQsqaUBKTNV-1">
          <mxGeometry x="110" y="530" width="80" height="30" as="geometry" />
        </mxCell>
        <mxCell id="yG3EtKwMuxylufSLAqyE-7" value="" style="html=1;points=[[0,0,0,0,5],[0,1,0,0,-5],[1,0,0,0,5],[1,1,0,0,-5]];perimeter=orthogonalPerimeter;outlineConnect=0;targetShapes=umlLifeline;portConstraint=eastwest;newEdgeStyle={&quot;curved&quot;:0,&quot;rounded&quot;:0};" vertex="1" parent="WIyWlLk6GJQsqaUBKTNV-1">
          <mxGeometry x="595" y="575" width="10" height="705" as="geometry" />
        </mxCell>
        <mxCell id="yG3EtKwMuxylufSLAqyE-8" value="ams-resource-provider" style="text;html=1;align=center;verticalAlign=middle;resizable=0;points=[];autosize=1;strokeColor=none;fillColor=none;" vertex="1" parent="WIyWlLk6GJQsqaUBKTNV-1">
          <mxGeometry x="530" y="538" width="140" height="30" as="geometry" />
        </mxCell>
        <mxCell id="yG3EtKwMuxylufSLAqyE-11" value="" style="html=1;points=[[0,0,0,0,5],[0,1,0,0,-5],[1,0,0,0,5],[1,1,0,0,-5]];perimeter=orthogonalPerimeter;outlineConnect=0;targetShapes=umlLifeline;portConstraint=eastwest;newEdgeStyle={&quot;curved&quot;:0,&quot;rounded&quot;:0};" vertex="1" parent="WIyWlLk6GJQsqaUBKTNV-1">
          <mxGeometry x="763" y="575" width="10" height="705" as="geometry" />
        </mxCell>
        <mxCell id="yG3EtKwMuxylufSLAqyE-12" value="pgsql" style="text;html=1;align=center;verticalAlign=middle;resizable=0;points=[];autosize=1;strokeColor=none;fillColor=none;" vertex="1" parent="WIyWlLk6GJQsqaUBKTNV-1">
          <mxGeometry x="747" y="543" width="50" height="30" as="geometry" />
        </mxCell>
        <mxCell id="yG3EtKwMuxylufSLAqyE-13" value="查instance,service表" style="endArrow=block;endFill=1;html=1;edgeStyle=orthogonalEdgeStyle;align=left;verticalAlign=top;rounded=0;" edge="1" parent="WIyWlLk6GJQsqaUBKTNV-1">
          <mxGeometry x="-1" relative="1" as="geometry">
            <mxPoint x="605" y="1080" as="sourcePoint" />
            <mxPoint x="765" y="1080" as="targetPoint" />
            <mxPoint as="offset" />
          </mxGeometry>
        </mxCell>
        <mxCell id="yG3EtKwMuxylufSLAqyE-14" value="3.2" style="edgeLabel;resizable=0;html=1;align=left;verticalAlign=bottom;" connectable="0" vertex="1" parent="yG3EtKwMuxylufSLAqyE-13">
          <mxGeometry x="-1" relative="1" as="geometry" />
        </mxCell>
        <mxCell id="yG3EtKwMuxylufSLAqyE-15" value="" style="html=1;points=[[0,0,0,0,5],[0,1,0,0,-5],[1,0,0,0,5],[1,1,0,0,-5]];perimeter=orthogonalPerimeter;outlineConnect=0;targetShapes=umlLifeline;portConstraint=eastwest;newEdgeStyle={&quot;curved&quot;:0,&quot;rounded&quot;:0};" vertex="1" parent="WIyWlLk6GJQsqaUBKTNV-1">
          <mxGeometry x="290" y="568" width="10" height="712" as="geometry" />
        </mxCell>
        <mxCell id="yG3EtKwMuxylufSLAqyE-16" value="云管api服务" style="text;html=1;align=center;verticalAlign=middle;resizable=0;points=[];autosize=1;strokeColor=none;fillColor=none;" vertex="1" parent="WIyWlLk6GJQsqaUBKTNV-1">
          <mxGeometry x="245" y="538" width="90" height="30" as="geometry" />
        </mxCell>
        <mxCell id="yG3EtKwMuxylufSLAqyE-20" value="" style="html=1;points=[[0,0,0,0,5],[0,1,0,0,-5],[1,0,0,0,5],[1,1,0,0,-5]];perimeter=orthogonalPerimeter;outlineConnect=0;targetShapes=umlLifeline;portConstraint=eastwest;newEdgeStyle={&quot;curved&quot;:0,&quot;rounded&quot;:0};" vertex="1" parent="WIyWlLk6GJQsqaUBKTNV-1">
          <mxGeometry x="900" y="575" width="10" height="705" as="geometry" />
        </mxCell>
        <mxCell id="yG3EtKwMuxylufSLAqyE-21" value="cci 服务" style="text;html=1;align=center;verticalAlign=middle;resizable=0;points=[];autosize=1;strokeColor=none;fillColor=none;" vertex="1" parent="WIyWlLk6GJQsqaUBKTNV-1">
          <mxGeometry x="873" y="548" width="70" height="30" as="geometry" />
        </mxCell>
        <mxCell id="yG3EtKwMuxylufSLAqyE-24" value="" style="html=1;points=[[0,0,0,0,5],[0,1,0,0,-5],[1,0,0,0,5],[1,1,0,0,-5]];perimeter=orthogonalPerimeter;outlineConnect=0;targetShapes=umlLifeline;portConstraint=eastwest;newEdgeStyle={&quot;curved&quot;:0,&quot;rounded&quot;:0};" vertex="1" parent="WIyWlLk6GJQsqaUBKTNV-1">
          <mxGeometry x="1033" y="575" width="10" height="705" as="geometry" />
        </mxCell>
        <mxCell id="yG3EtKwMuxylufSLAqyE-27" value="tk 集群 可用区xx" style="text;html=1;align=center;verticalAlign=middle;resizable=0;points=[];autosize=1;strokeColor=none;fillColor=none;" vertex="1" parent="WIyWlLk6GJQsqaUBKTNV-1">
          <mxGeometry x="983" y="543" width="110" height="30" as="geometry" />
        </mxCell>
        <mxCell id="yG3EtKwMuxylufSLAqyE-28" value="定时扫描实例表" style="endArrow=block;endFill=1;html=1;edgeStyle=orthogonalEdgeStyle;align=left;verticalAlign=top;rounded=0;" edge="1" parent="WIyWlLk6GJQsqaUBKTNV-1">
          <mxGeometry x="-1" relative="1" as="geometry">
            <mxPoint x="606" y="778" as="sourcePoint" />
            <mxPoint x="763" y="778" as="targetPoint" />
            <mxPoint as="offset" />
          </mxGeometry>
        </mxCell>
        <mxCell id="yG3EtKwMuxylufSLAqyE-29" value="2.1" style="edgeLabel;resizable=0;html=1;align=left;verticalAlign=bottom;" connectable="0" vertex="1" parent="yG3EtKwMuxylufSLAqyE-28">
          <mxGeometry x="-1" relative="1" as="geometry" />
        </mxCell>
        <mxCell id="yG3EtKwMuxylufSLAqyE-30" value="定时拉取cci app资源信息" style="endArrow=block;endFill=1;html=1;edgeStyle=orthogonalEdgeStyle;align=left;verticalAlign=top;rounded=0;" edge="1" parent="WIyWlLk6GJQsqaUBKTNV-1">
          <mxGeometry x="-1" relative="1" as="geometry">
            <mxPoint x="605" y="857" as="sourcePoint" />
            <mxPoint x="895" y="857" as="targetPoint" />
            <mxPoint as="offset" />
          </mxGeometry>
        </mxCell>
        <mxCell id="yG3EtKwMuxylufSLAqyE-31" value="2.2" style="edgeLabel;resizable=0;html=1;align=left;verticalAlign=bottom;" connectable="0" vertex="1" parent="yG3EtKwMuxylufSLAqyE-30">
          <mxGeometry x="-1" relative="1" as="geometry" />
        </mxCell>
        <mxCell id="yG3EtKwMuxylufSLAqyE-32" value="cci app和实例表信息有diff，&lt;br&gt;重新渲染推理框架template，&lt;br&gt;调用cci" style="endArrow=block;endFill=1;html=1;edgeStyle=orthogonalEdgeStyle;align=left;verticalAlign=top;rounded=0;" edge="1" parent="WIyWlLk6GJQsqaUBKTNV-1">
          <mxGeometry x="-1" relative="1" as="geometry">
            <mxPoint x="606" y="930" as="sourcePoint" />
            <mxPoint x="894" y="930" as="targetPoint" />
            <mxPoint as="offset" />
          </mxGeometry>
        </mxCell>
        <mxCell id="yG3EtKwMuxylufSLAqyE-33" value="刷新推理服务页面" style="endArrow=block;endFill=1;html=1;edgeStyle=orthogonalEdgeStyle;align=left;verticalAlign=top;rounded=0;" edge="1" parent="WIyWlLk6GJQsqaUBKTNV-1">
          <mxGeometry x="-1" relative="1" as="geometry">
            <mxPoint x="135" y="1080" as="sourcePoint" />
            <mxPoint x="589" y="1080" as="targetPoint" />
          </mxGeometry>
        </mxCell>
        <mxCell id="yG3EtKwMuxylufSLAqyE-34" value="3.1" style="edgeLabel;resizable=0;html=1;align=left;verticalAlign=bottom;" connectable="0" vertex="1" parent="yG3EtKwMuxylufSLAqyE-33">
          <mxGeometry x="-1" relative="1" as="geometry" />
        </mxCell>
        <mxCell id="yG3EtKwMuxylufSLAqyE-35" value="rp 整合 实例表 和 cci的信息后，返回给前端" style="html=1;verticalAlign=bottom;endArrow=open;dashed=1;endSize=8;curved=0;rounded=0;" edge="1" parent="WIyWlLk6GJQsqaUBKTNV-1">
          <mxGeometry x="-0.0003" relative="1" as="geometry">
            <mxPoint x="580" y="1198" as="sourcePoint" />
            <mxPoint x="155" y="1198" as="targetPoint" />
            <mxPoint as="offset" />
          </mxGeometry>
        </mxCell>
        <mxCell id="yG3EtKwMuxylufSLAqyE-40" value="return" style="html=1;verticalAlign=bottom;endArrow=open;dashed=1;endSize=8;curved=0;rounded=0;" edge="1" parent="WIyWlLk6GJQsqaUBKTNV-1">
          <mxGeometry relative="1" as="geometry">
            <mxPoint x="894" y="892" as="sourcePoint" />
            <mxPoint x="606" y="892" as="targetPoint" />
          </mxGeometry>
        </mxCell>
        <mxCell id="yG3EtKwMuxylufSLAqyE-41" value="return" style="html=1;verticalAlign=bottom;endArrow=open;dashed=1;endSize=8;curved=0;rounded=0;" edge="1" parent="WIyWlLk6GJQsqaUBKTNV-1">
          <mxGeometry relative="1" as="geometry">
            <mxPoint x="764" y="811.5" as="sourcePoint" />
            <mxPoint x="606" y="811.5" as="targetPoint" />
          </mxGeometry>
        </mxCell>
        <mxCell id="yG3EtKwMuxylufSLAqyE-46" value="return" style="html=1;verticalAlign=bottom;endArrow=open;dashed=1;endSize=8;curved=0;rounded=0;" edge="1" parent="WIyWlLk6GJQsqaUBKTNV-1">
          <mxGeometry relative="1" as="geometry">
            <mxPoint x="763" y="1121" as="sourcePoint" />
            <mxPoint x="603" y="1121" as="targetPoint" />
          </mxGeometry>
        </mxCell>
        <mxCell id="yG3EtKwMuxylufSLAqyE-49" value="拉取实例最新配置信息" style="endArrow=block;endFill=1;html=1;edgeStyle=orthogonalEdgeStyle;align=left;verticalAlign=top;rounded=0;" edge="1" parent="WIyWlLk6GJQsqaUBKTNV-1">
          <mxGeometry x="-1" relative="1" as="geometry">
            <mxPoint x="605" y="1151" as="sourcePoint" />
            <mxPoint x="903" y="1151" as="targetPoint" />
            <mxPoint as="offset" />
            <Array as="points">
              <mxPoint x="605" y="1152" />
              <mxPoint x="895" y="1152" />
              <mxPoint x="895" y="1151" />
            </Array>
          </mxGeometry>
        </mxCell>
        <mxCell id="yG3EtKwMuxylufSLAqyE-50" value="3.3" style="edgeLabel;resizable=0;html=1;align=left;verticalAlign=bottom;" connectable="0" vertex="1" parent="yG3EtKwMuxylufSLAqyE-49">
          <mxGeometry x="-1" relative="1" as="geometry" />
        </mxCell>
        <mxCell id="yG3EtKwMuxylufSLAqyE-51" value="return" style="html=1;verticalAlign=bottom;endArrow=open;dashed=1;endSize=8;curved=0;rounded=0;" edge="1" parent="WIyWlLk6GJQsqaUBKTNV-1">
          <mxGeometry relative="1" as="geometry">
            <mxPoint x="893" y="1181" as="sourcePoint" />
            <mxPoint x="603" y="1181" as="targetPoint" />
          </mxGeometry>
        </mxCell>
        <mxCell id="yG3EtKwMuxylufSLAqyE-53" value="用户创建实例的扩缩&lt;br&gt;容策略和规则" style="endArrow=block;endFill=1;html=1;edgeStyle=orthogonalEdgeStyle;align=left;verticalAlign=top;rounded=0;" edge="1" parent="WIyWlLk6GJQsqaUBKTNV-1">
          <mxGeometry x="-1" relative="1" as="geometry">
            <mxPoint x="158" y="600" as="sourcePoint" />
            <mxPoint x="590" y="600" as="targetPoint" />
            <mxPoint as="offset" />
          </mxGeometry>
        </mxCell>
        <mxCell id="yG3EtKwMuxylufSLAqyE-54" value="1.1" style="edgeLabel;resizable=0;html=1;align=left;verticalAlign=bottom;" connectable="0" vertex="1" parent="yG3EtKwMuxylufSLAqyE-53">
          <mxGeometry x="-1" relative="1" as="geometry" />
        </mxCell>
        <mxCell id="yG3EtKwMuxylufSLAqyE-55" value="写入plan 和 instance表" style="endArrow=block;endFill=1;html=1;edgeStyle=orthogonalEdgeStyle;align=left;verticalAlign=top;rounded=0;" edge="1" parent="WIyWlLk6GJQsqaUBKTNV-1">
          <mxGeometry x="-1" relative="1" as="geometry">
            <mxPoint x="605" y="600" as="sourcePoint" />
            <mxPoint x="763" y="600" as="targetPoint" />
            <mxPoint as="offset" />
          </mxGeometry>
        </mxCell>
        <mxCell id="yG3EtKwMuxylufSLAqyE-56" value="1.2" style="edgeLabel;resizable=0;html=1;align=left;verticalAlign=bottom;" connectable="0" vertex="1" parent="yG3EtKwMuxylufSLAqyE-55">
          <mxGeometry x="-1" relative="1" as="geometry" />
        </mxCell>
        <mxCell id="yG3EtKwMuxylufSLAqyE-57" value="rp http接口返回扩缩容策略规则" style="html=1;verticalAlign=bottom;endArrow=open;dashed=1;endSize=8;curved=0;rounded=0;" edge="1" parent="WIyWlLk6GJQsqaUBKTNV-1">
          <mxGeometry x="0.0009" relative="1" as="geometry">
            <mxPoint x="590" y="650" as="sourcePoint" />
            <mxPoint x="155" y="650" as="targetPoint" />
            <mxPoint as="offset" />
          </mxGeometry>
        </mxCell>
        <mxCell id="yG3EtKwMuxylufSLAqyE-58" value="return" style="html=1;verticalAlign=bottom;endArrow=open;dashed=1;endSize=8;curved=0;rounded=0;" edge="1" parent="WIyWlLk6GJQsqaUBKTNV-1">
          <mxGeometry relative="1" as="geometry">
            <mxPoint x="763" y="633" as="sourcePoint" />
            <mxPoint x="605" y="633" as="targetPoint" />
          </mxGeometry>
        </mxCell>
        <mxCell id="yG3EtKwMuxylufSLAqyE-59" value="" style="curved=1;endArrow=classic;html=1;rounded=0;" edge="1" parent="WIyWlLk6GJQsqaUBKTNV-1">
          <mxGeometry width="50" height="50" relative="1" as="geometry">
            <mxPoint x="615" y="659" as="sourcePoint" />
            <mxPoint x="603" y="699" as="targetPoint" />
            <Array as="points">
              <mxPoint x="595" y="659" />
              <mxPoint x="643" y="659" />
              <mxPoint x="663" y="679" />
              <mxPoint x="643" y="699" />
            </Array>
          </mxGeometry>
        </mxCell>
        <mxCell id="yG3EtKwMuxylufSLAqyE-60" value="rp将rule放到到&lt;br&gt;cron任务中执行" style="edgeLabel;html=1;align=center;verticalAlign=middle;resizable=0;points=[];" vertex="1" connectable="0" parent="yG3EtKwMuxylufSLAqyE-59">
          <mxGeometry x="0.2408" y="-2" relative="1" as="geometry">
            <mxPoint y="1" as="offset" />
          </mxGeometry>
        </mxCell>
        <mxCell id="yG3EtKwMuxylufSLAqyE-61" value="1.3" style="edgeLabel;html=1;align=center;verticalAlign=middle;resizable=0;points=[];" vertex="1" connectable="0" parent="yG3EtKwMuxylufSLAqyE-59">
          <mxGeometry x="-0.9915" relative="1" as="geometry">
            <mxPoint as="offset" />
          </mxGeometry>
        </mxCell>
        <mxCell id="yG3EtKwMuxylufSLAqyE-62" value="到达规则时间，更新实例表spec.replica" style="text;html=1;strokeColor=none;fillColor=none;align=center;verticalAlign=middle;whiteSpace=wrap;rounded=0;" vertex="1" parent="WIyWlLk6GJQsqaUBKTNV-1">
          <mxGeometry x="613" y="713" width="120" height="30" as="geometry" />
        </mxCell>
        <mxCell id="yG3EtKwMuxylufSLAqyE-63" value="" style="endArrow=classic;html=1;rounded=0;" edge="1" parent="WIyWlLk6GJQsqaUBKTNV-1" target="yG3EtKwMuxylufSLAqyE-11">
          <mxGeometry width="50" height="50" relative="1" as="geometry">
            <mxPoint x="605" y="710" as="sourcePoint" />
            <mxPoint x="753" y="710" as="targetPoint" />
          </mxGeometry>
        </mxCell>
        <mxCell id="yG3EtKwMuxylufSLAqyE-64" value="return" style="html=1;verticalAlign=bottom;endArrow=open;dashed=1;endSize=8;curved=0;rounded=0;" edge="1" parent="WIyWlLk6GJQsqaUBKTNV-1">
          <mxGeometry relative="1" as="geometry">
            <mxPoint x="896" y="985" as="sourcePoint" />
            <mxPoint x="608" y="985" as="targetPoint" />
          </mxGeometry>
        </mxCell>
        <mxCell id="yG3EtKwMuxylufSLAqyE-65" value="更新cci app配置" style="endArrow=block;endFill=1;html=1;edgeStyle=orthogonalEdgeStyle;align=left;verticalAlign=top;rounded=0;" edge="1" parent="WIyWlLk6GJQsqaUBKTNV-1">
          <mxGeometry x="-1" relative="1" as="geometry">
            <mxPoint x="910" y="1001" as="sourcePoint" />
            <mxPoint x="1030" y="1001" as="targetPoint" />
            <mxPoint as="offset" />
          </mxGeometry>
        </mxCell>
        <mxCell id="yG3EtKwMuxylufSLAqyE-66" value="2.4" style="edgeLabel;resizable=0;html=1;align=left;verticalAlign=bottom;" connectable="0" vertex="1" parent="yG3EtKwMuxylufSLAqyE-65">
          <mxGeometry x="-1" relative="1" as="geometry" />
        </mxCell>
        <mxCell id="yG3EtKwMuxylufSLAqyE-67" value="return" style="html=1;verticalAlign=bottom;endArrow=open;dashed=1;endSize=8;curved=0;rounded=0;" edge="1" parent="WIyWlLk6GJQsqaUBKTNV-1">
          <mxGeometry relative="1" as="geometry">
            <mxPoint x="1030.0000000000002" y="1063" as="sourcePoint" />
            <mxPoint x="910" y="1063" as="targetPoint" />
          </mxGeometry>
        </mxCell>
        <mxCell id="yG3EtKwMuxylufSLAqyE-68" value="2.3" style="edgeLabel;resizable=0;html=1;align=left;verticalAlign=bottom;" connectable="0" vertex="1" parent="WIyWlLk6GJQsqaUBKTNV-1">
          <mxGeometry x="605.9999999999998" y="930.0000000000002" as="geometry" />
        </mxCell>
        <mxCell id="yG3EtKwMuxylufSLAqyE-73" value="" style="rounded=0;whiteSpace=wrap;html=1;rotation=90;fillColor=#030303;" vertex="1" parent="WIyWlLk6GJQsqaUBKTNV-1">
          <mxGeometry x="1009.25" y="1026.25" width="57.5" height="10" as="geometry" />
        </mxCell>
        <mxCell id="yG3EtKwMuxylufSLAqyE-74" value="" style="rounded=0;whiteSpace=wrap;html=1;rotation=90;fillColor=#030303;" vertex="1" parent="WIyWlLk6GJQsqaUBKTNV-1">
          <mxGeometry x="753" y="610" width="30" height="10" as="geometry" />
        </mxCell>
        <mxCell id="yG3EtKwMuxylufSLAqyE-75" value="" style="rounded=0;whiteSpace=wrap;html=1;rotation=90;fillColor=#030303;" vertex="1" parent="WIyWlLk6GJQsqaUBKTNV-1">
          <mxGeometry x="753" y="790" width="30" height="10" as="geometry" />
        </mxCell>
        <mxCell id="yG3EtKwMuxylufSLAqyE-76" value="" style="rounded=0;whiteSpace=wrap;html=1;rotation=90;fillColor=#030303;" vertex="1" parent="WIyWlLk6GJQsqaUBKTNV-1">
          <mxGeometry x="575" y="680" width="50" height="10" as="geometry" />
        </mxCell>
        <mxCell id="yG3EtKwMuxylufSLAqyE-77" value="" style="rounded=0;whiteSpace=wrap;html=1;rotation=90;fillColor=#030303;" vertex="1" parent="WIyWlLk6GJQsqaUBKTNV-1">
          <mxGeometry x="890" y="870" width="30" height="10" as="geometry" />
        </mxCell>
        <mxCell id="yG3EtKwMuxylufSLAqyE-79" value="" style="rounded=0;whiteSpace=wrap;html=1;rotation=90;fillColor=#030303;" vertex="1" parent="WIyWlLk6GJQsqaUBKTNV-1">
          <mxGeometry x="878.5" y="951.5" width="53" height="10" as="geometry" />
        </mxCell>
        <mxCell id="yG3EtKwMuxylufSLAqyE-80" value="" style="rounded=0;whiteSpace=wrap;html=1;rotation=90;fillColor=#030303;" vertex="1" parent="WIyWlLk6GJQsqaUBKTNV-1">
          <mxGeometry x="890" y="1159" width="30" height="10" as="geometry" />
        </mxCell>
        <mxCell id="yG3EtKwMuxylufSLAqyE-81" value="" style="rounded=0;whiteSpace=wrap;html=1;rotation=90;fillColor=#030303;" vertex="1" parent="WIyWlLk6GJQsqaUBKTNV-1">
          <mxGeometry x="747" y="1100" width="30" height="10" as="geometry" />
        </mxCell>
      </root>
    </mxGraphModel>
  </diagram>
</mxfile>
